<?xml version="1.0" encoding="utf-8"?>
<!-- Generator: Adobe Illustrator 17.0.0, SVG Export Plug-In . SVG Version: 6.00 Build 0)  -->
<!DOCTYPE svg PUBLIC "-//W3C//DTD SVG 1.1//EN" "http://www.w3.org/Graphics/SVG/1.1/DTD/svg11.dtd">
<svg version="1.1" id="Layer_1" xmlns="http://www.w3.org/2000/svg" xmlns:xlink="http://www.w3.org/1999/xlink" x="0px" y="0px"
	 width="100px" height="100px" viewBox="0 0 100 100" style="enable-background:new 0 0 100 100;" xml:space="preserve">
<style type="text/css">
	.st0{fill:#662D91;}
	.st1{fill:#ED1C24;}
	.st2{fill:#00A651;}
	.st3{fill:#00AEEF;}
	.st4{fill:#F7941E;}
	.st5{fill:#F9ED32;}
	.st6{fill:#DCEEEF;}
	.st7{fill:#7E9BD0;}
	.st8{fill:#FFFFFF;}
</style>
<g id="arcs">
	
		<image style="overflow:visible;opacity:0.55;" width="476" height="476" xlink:href="613F8A41.png"  transform="matrix(0.24 0 0 0.24 -3.8213 -3.6548)">
	</image>
	<g>
		<g>
			<g>
				<path class="st0" d="M13,50.3h-2c0-21.6,17.6-39.2,39.2-39.2v2C29.7,13.1,13,29.8,13,50.3z"/>
			</g>
			<g>
				<path class="st1" d="M50.2,89.5v-2c20.5,0,37.2-16.7,37.2-37.2h2C89.4,71.9,71.9,89.5,50.2,89.5z"/>
			</g>
			<g>
				<path class="st2" d="M50.2,93.9c-24,0-43.6-19.5-43.6-43.6h2c0,22.9,18.7,41.6,41.6,41.6V93.9z"/>
			</g>
			<g>
				<path class="st3" d="M93.8,50.3h-2c0-22.9-18.7-41.6-41.6-41.6v-2C74.3,6.7,93.8,26.3,93.8,50.3z"/>
			</g>
			<g>
				<path class="st4" d="M50.2,98.2v-2c25.3,0,45.9-20.6,45.9-45.9h2C98.2,76.7,76.7,98.2,50.2,98.2z"/>
			</g>
			<g>
				<path class="st5" d="M4.3,50.3h-2c0-26.4,21.5-47.9,47.9-47.9v2C24.9,4.3,4.3,25,4.3,50.3z"/>
			</g>
			<g>
				<path class="st6" d="M49,98.3c-25.8,0-46.9-21-46.9-46.9h2c0,24.7,20.1,44.9,44.9,44.9V98.3z"/>
			</g>
		</g>
	</g>
</g>
<g id="ico_3_">
	
		<image style="overflow:visible;opacity:0.9;" width="287" height="298" xlink:href="613F8A43.png"  transform="matrix(0.24 0 0 0.24 25.2283 17.4017)">
	</image>
	<g>
		<g>
			<g id="bleu_11_">
				<path class="st7" d="M67,43.4l12.5,6.3c1.4,0.7,1.8,2.3,1,3.6l-7.7,11.7c-0.9,1.3-2.7,1.8-4.1,1.1c-1.4-0.7-1.8-2.3-1-3.6
					l6.1-9.4l-10-5c-1.4-0.7-1.8-2.3-1-3.6C63.8,43.2,65.6,42.7,67,43.4L67,43.4z"/>
			</g>
			<path class="st8" d="M38.6,72.4c-0.3,1.9-2.3,3.4-4.6,3.4c-2.3,0-4-1.5-3.7-3.4l6-43.3c0.3-1.9,2.4-3.4,4.7-3.4
				c2.3,0,4,1.5,3.7,3.4L38.6,72.4z M52.6,22.4c2.3-0.3,4.3,1,4.4,2.8l2.2,41.1c0.1,1.9-1.7,3.6-4,3.9c-2.3,0.3-4.3-1-4.4-2.8
				l-2.2-41.1C48.5,24.5,50.2,22.8,52.6,22.4L52.6,22.4z"/>
		</g>
	</g>
</g>
</svg>
